<?xml version="1.0" encoding="utf-8"?>
<!-- Generator: Adobe Illustrator 21.0.0, SVG Export Plug-In . SVG Version: 6.00 Build 0)  -->
<svg version="1.1" id="图层_1" xmlns="http://www.w3.org/2000/svg" xmlns:xlink="http://www.w3.org/1999/xlink" x="0px" y="0px"
	 viewBox="0 0 500 500" style="enable-background:new 0 0 500 500;" xml:space="preserve">
<style type="text/css">
	.st0{fill:#2F89FC;}
	.st1{fill:#FFFFFF;}
	.st2{fill:#1F3349;}
</style>
<g>
	<g>
		<path class="st0" d="M48.9,50.9c9.3-9.3,20-14.4,27.2-13.9c-4.6-4.3-10.9-7-17.8-7c-10,0-18.6,5.5-22.8,13.8
			c-10.7,1.4-18.6,9.4-18.6,20.1c0,11.3,9.2,20,20.5,20.1C31.5,78,36.6,63.2,48.9,50.9z"/>
		<path class="st0" d="M84.1,50.7c-1.5,6.6-6.2,14.7-13.4,21.9c-5.2,5.2-10.8,9.1-16,11.4h27.9c9.7,0,17.3-7,17.3-16.7
			C99.8,58.4,92.6,51.5,84.1,50.7z"/>
	</g>
	<path class="st0" d="M66.8,52.9C66,52.2,65,51.7,64,51.4c-1-0.2-2.1-0.4-3.4-0.4H56c-1.1,0-1.9,0.3-2.5,0.9
		c-0.6,0.6-0.9,1.4-0.9,2.5v12.8c0,0.7,0.1,1.2,0.2,1.7c0.2,0.7,0.6,1.2,1.2,1.5c0.5,0.3,1.2,0.5,2.1,0.5h4.6c0.9,0,1.7-0.1,2.4-0.2
		c0.7-0.1,1.5-0.3,2.1-0.6c0.7-0.3,1.3-0.7,1.9-1.2c0.7-0.6,1.3-1.4,1.7-2.2c0.4-0.8,0.8-1.7,1-2.7c0.2-0.9,0.3-2,0.3-3.1
		C70,57.4,68.9,54.7,66.8,52.9z"/>
	<g>
		<path class="st1" d="M56.8,62.5l1.8-0.2c0.1,0.6,0.3,1,0.7,1.3c0.3,0.3,0.8,0.4,1.3,0.4c0.6,0,1-0.1,1.3-0.4
			c0.3-0.3,0.5-0.5,0.5-0.9c0-0.2-0.1-0.4-0.2-0.6c-0.1-0.2-0.3-0.3-0.7-0.4c-0.2-0.1-0.7-0.2-1.5-0.4c-1-0.2-1.7-0.5-2.1-0.9
			c-0.6-0.5-0.8-1.1-0.8-1.8c0-0.5,0.1-0.9,0.4-1.3c0.3-0.4,0.6-0.7,1.1-0.9c0.5-0.2,1.1-0.3,1.8-0.3c1.2,0,2,0.3,2.6,0.8
			c0.6,0.5,0.9,1.2,0.9,2L62.1,59c-0.1-0.5-0.2-0.8-0.5-1c-0.3-0.2-0.7-0.3-1.2-0.3c-0.5,0-1,0.1-1.3,0.3c-0.2,0.1-0.3,0.3-0.3,0.6
			c0,0.2,0.1,0.4,0.3,0.6c0.2,0.2,0.8,0.4,1.7,0.6c0.9,0.2,1.6,0.4,2,0.7c0.4,0.2,0.8,0.5,1,0.9c0.2,0.4,0.4,0.9,0.4,1.5
			c0,0.5-0.1,1-0.4,1.5c-0.3,0.5-0.7,0.8-1.2,1c-0.5,0.2-1.2,0.3-2,0.3c-1.2,0-2.1-0.3-2.7-0.8C57.3,64.3,56.9,63.5,56.8,62.5z"/>
	</g>
</g>
<g>
	<path class="st2" d="M119.1,41.3h3.7v19.4c0,8.4-0.3,15.9-3.4,22c-0.7-0.8-2.1-2.1-3-2.7c2.4-5.4,2.7-12,2.7-19.3V41.3z
		 M125.6,44.6h3.3v31.5h-3.3V44.6z M131.9,41.1h3.8v40.2h-3.8V41.1z M150.4,71.3c3.2,2.6,7.4,6.3,9.4,8.7l-3.1,2.6
		c-1.6-2.2-5.1-5.5-8-8.1c-1.6,3.1-4.6,6.1-9.9,8.3c-0.6-0.8-1.7-2.2-2.7-3c9.4-3.6,10.4-9.9,10.4-14.4v-9h4v9c0,2-0.2,4.2-0.8,6.3
		L150.4,71.3z M159.8,41.5v3.8h-9.1c-0.6,1.5-1.1,3-1.6,4.2h9.2v22.2h-4.1V53.4h-11.4v18.4h-3.9V49.5h6.1c0.4-1.3,0.8-2.9,1.2-4.2
		h-8.4v-3.8H159.8z"/>
	<path class="st2" d="M176.7,51.2c-1.1,2.2-2.4,4.3-3.8,6.4v25.1h-4.1V63.4c-1.4,1.8-2.8,3.4-4.1,4.7c-0.5-0.9-1.7-3-2.5-4
		c3.9-3.6,7.9-9,10.5-14.3L176.7,51.2z M175.9,41.3c-3,4.1-7.5,9-11.3,12.3c-0.4-1-1.5-2.7-2.1-3.6c3.2-2.7,7.3-7,9.4-10.3
		L175.9,41.3z M174,79.1c1.7-2.2,3.1-5.8,3.9-8.7l3.3,1.3c-0.8,3-2.1,6.8-3.9,9.3L174,79.1z M205.9,67.8h-15.1
		c1.2,1.8,2.5,4.2,3.2,5.6l-3.4,1.3c-0.7-1.5-2-4-3.2-5.8l3-1.1H176v-3.5h29.9V67.8z M187.8,49.6c0.2-0.9,0.3-1.9,0.5-2.9h-11.8
		v-3.5h12.2c0.1-1.3,0.2-2.6,0.3-3.7l4.6,0.1l-0.5,3.6h12.6v3.5h-13.2c-0.1,1.1-0.3,2-0.5,2.9h12.1v12h-25.7v-12H187.8z M185.8,52.9
		h-4v5.5h4V52.9z M194,78.7c1.4,0,1.6-0.5,1.8-4.2c0.8,0.6,2.3,1.1,3.4,1.4c-0.4,5-1.5,6.2-4.8,6.2h-6.4c-4.3,0-5.3-1.1-5.3-4.6
		v-6.5h3.8v6.4c0,1.1,0.3,1.2,2,1.2H194z M193.1,52.9h-4.2v5.5h4.2V52.9z M196.2,58.4h4.3v-5.5h-4.3V58.4z M201.3,70.1
		c1.9,2.8,4,6.4,4.9,8.9l-3.5,1.6c-0.8-2.4-2.7-6.2-4.7-9L201.3,70.1z"/>
	<path class="st2" d="M251.3,77.2v4.2h-40.1V41.9h39v4.2h-34.7v31.1H251.3z M242.7,74.4c-2.3-2.8-5.7-6.3-9.7-10
		c-3.9,3.9-8.1,7.3-12.3,10c-0.8-0.8-2.4-2.5-3.4-3.3c4.4-2.5,8.7-5.8,12.6-9.5c-3.7-3.3-7.5-6.6-11-9.4l3.1-2.6
		c3.3,2.6,7.1,5.7,10.8,8.9c3-3.3,5.6-6.8,7.8-10.5l4.1,1.6c-2.4,4.1-5.4,8-8.6,11.7c4,3.6,7.7,7.1,10.2,9.9L242.7,74.4z"/>
	<path class="st2" d="M271.4,74.1h-11.1v3.8h-4.1V43.4h15.2V74.1z M260.3,47.3v9.3h7v-9.3H260.3z M267.3,70.2v-9.7h-7v9.7H267.3z
		 M297.6,52.9h-5.3v23.6c0,2.9-0.8,4.2-2.5,4.8c-1.9,0.7-5,0.8-9.6,0.8c-0.2-1.2-0.9-3.2-1.6-4.4c3.4,0.1,6.9,0.1,7.9,0.1
		c0.9,0,1.3-0.3,1.3-1.3V52.9h-14.6v-4.3h14.6v-8.7h4.5v8.7h5.3V52.9z M281.4,69.3c-1.5-2.8-4.5-7.6-6.9-11.1l3.6-1.9
		c2.4,3.4,5.6,8,7.2,10.7L281.4,69.3z"/>
	<path class="st2" d="M341.9,45.1v9.9h-4.5v-5.9h-31.2v6.9h-4.3V45.1h18c-0.6-1.5-1.4-3.2-2-4.6l4.6-1.3c0.9,1.7,2,4.1,2.7,5.8
		H341.9z M324,77.2h17.8v3.9H302v-3.9h17.3V66.5h-12.1v-3.9h29.5v3.9H324V77.2z M319.3,54.1c-3.9,3.3-9.3,6.8-14.6,9l-2.5-3.9
		c5.3-1.8,10.2-4.7,14-7.8L319.3,54.1z M338.6,62.6c-3.1-2.2-9.6-5.8-14.2-8.1l2.7-3c4.5,2.2,11.1,5.5,14.5,7.7L338.6,62.6z"/>
	<path class="st2" d="M359.8,40.9c-1.1,3-2.4,6-3.8,8.9v33h-4v-26c-1.3,2-2.6,3.7-3.9,5.3c-0.4-0.9-1.6-3.2-2.3-4.2
		c4.1-4.4,7.8-11.3,10.2-18.1L359.8,40.9z M388.7,47.1v3.6h-29.8v-3.6h13.8c-0.7-1.7-2-4.2-3.1-6.1l3.8-1.5c1.3,1.9,2.7,4.4,3.4,6.1
		l-3.4,1.5H388.7z M361.6,67.4h24.1v15.1h-3.9V81h-16.5v1.7h-3.7V67.4z M385.1,57.4h-22.9v-3.5h22.9V57.4z M362.2,60.5h22.9V64
		h-22.9V60.5z M365.3,71v6.5h16.5V71H365.3z"/>
	<path class="st2" d="M392,78.6c1.7-2.6,3.5-6.6,4.6-9.6l3.8,1.6c-1.1,3.1-2.7,7.2-4.4,9.9L392,78.6z M412,66.3h-13.1V43.8h10.9
		c0.6-1.5,1.2-3.4,1.5-4.7l5.2,0.8c-0.7,1.4-1.5,2.8-2.1,3.9h13.4v22.5h-14.3c2.2,2,4.5,4.7,5.6,6.6l-3.6,2.2c-1-2.1-3.6-5.2-6-7.3
		L412,66.3z M419.2,77.9c2.3,0,2.8-0.7,3-5.3c1,0.7,2.8,1.4,4,1.6c-0.6,6.2-1.9,7.7-6.8,7.7h-9.9c-5.9,0-7.4-1.2-7.4-5.5v-7.1h4.4v7
		c0,1.3,0.5,1.6,3.4,1.6H419.2z M403.2,50.3h20.3v-3.1h-20.3V50.3z M403.2,56.5h20.3v-3.1h-20.3V56.5z M403.2,62.9h20.3v-3.1h-20.3
		V62.9z M429.1,68.2c2.1,2.9,4.4,6.9,5.2,9.5l-4.1,1.8c-0.7-2.7-2.9-6.7-4.9-9.8L429.1,68.2z"/>
	<path class="st2" d="M458.3,60.6c-2.9,5.4-6.5,10.6-10,14.8l21.4-1.6c-1.7-2.7-3.6-5.3-5.3-7.6l4-2.1c3.9,5.2,8.5,11.9,10.8,16.3
		l-4.2,2.5c-0.7-1.4-1.6-3.1-2.8-4.9c-24.7,2.1-27.6,2.2-29.8,3.1c-0.3-1-1-3.5-1.7-4.9c1.2-0.3,2.2-1.5,3.7-3.3
		c1.3-1.5,4.9-6.6,7.8-12.3h-13.7v-4.5h41.7v4.5H458.3z M475.3,47.5h-31.7V43h31.7V47.5z"/>
	<path class="st2" d="M526.2,66.7h-18.8v16h-4.5v-16h-18.6v-4.4h18.6V46.9h-16.2v-4.3h36.8v4.3h-16.2v15.4h18.8V66.7z M493.6,48.8
		c1.7,3.2,3.5,7.4,4.1,10.2l-4.2,1.4c-0.6-2.7-2.2-7-3.9-10.3L493.6,48.8z M511.8,59.2c1.6-2.8,3.6-7.3,4.6-10.6l4.7,1.3
		c-1.7,3.7-3.8,7.9-5.5,10.5L511.8,59.2z"/>
	<path class="st2" d="M558.6,44.4c4.4,4,9.9,9.8,12.4,13.6l-3.7,2.7c-0.7-1.2-1.6-2.5-2.7-3.9c-25.8,1.4-28.9,1.5-31,2.2
		c-0.2-0.9-0.9-3.1-1.4-4.3c1.1-0.2,2.3-1.2,3.9-2.7c1.6-1.6,7-7.3,10.4-13l4.4,1.9c-3.4,4.7-7.4,9.3-11.2,13l21.9-0.9
		c-2-2.3-4.2-4.5-6.2-6.4L558.6,44.4z M535.7,62.7h30.5v19.9h-4.7v-2.4h-21.4v2.5h-4.4V62.7z M540.1,66.9V76h21.4v-9.1H540.1z"/>
</g>
</svg>
